<mxfile host="app.diagrams.net" modified="2024-05-09T18:19:13.941Z" agent="Mozilla/5.0 (Windows NT 10.0; Win64; x64) AppleWebKit/537.36 (KHTML, like Gecko) Chrome/124.0.0.0 Safari/537.36" etag="uYwdlRhnIsdHsTsD4vHY" version="24.3.1" type="google">
  <diagram name="Page-1" id="RMdezr6UdJW6Or1HYO10">
    <mxGraphModel grid="1" page="1" gridSize="10" guides="1" tooltips="1" connect="1" arrows="1" fold="1" pageScale="1" pageWidth="850" pageHeight="1100" math="0" shadow="0">
      <root>
        <mxCell id="0" />
        <mxCell id="1" parent="0" />
        <mxCell id="Zh6YG2GxRUYbAj4SdjON-16" value="" style="group" connectable="0" vertex="1" parent="1">
          <mxGeometry x="200" y="-160" width="1310" height="1070" as="geometry" />
        </mxCell>
        <mxCell id="5Ai2d2LHb7HxCxD4g9rU-1" value="" style="rounded=1;whiteSpace=wrap;html=1;fillColor=#dae8fc;strokeColor=#6c8ebf;" vertex="1" parent="Zh6YG2GxRUYbAj4SdjON-16">
          <mxGeometry x="258.6180713743356" y="301.27157129881925" width="755.960516324981" height="301.27157129881925" as="geometry" />
        </mxCell>
        <mxCell id="5Ai2d2LHb7HxCxD4g9rU-2" value="&lt;b&gt;BRONZE&lt;/b&gt;" style="rounded=1;whiteSpace=wrap;html=1;fillColor=#fad7ac;strokeColor=#b46504;" vertex="1" parent="Zh6YG2GxRUYbAj4SdjON-16">
          <mxGeometry x="320.28853454821564" y="417.89282470481385" width="119.3621867881549" height="58.31062670299729" as="geometry" />
        </mxCell>
        <mxCell id="5Ai2d2LHb7HxCxD4g9rU-3" value="&lt;b&gt;SILVER&lt;/b&gt;" style="rounded=1;whiteSpace=wrap;html=1;fillColor=#d0e0ec;strokeColor=none;" vertex="1" parent="Zh6YG2GxRUYbAj4SdjON-16">
          <mxGeometry x="586.8640850417617" y="417.89282470481385" width="119.3621867881549" height="58.31062670299729" as="geometry" />
        </mxCell>
        <mxCell id="5Ai2d2LHb7HxCxD4g9rU-4" value="&lt;b&gt;GOLD&lt;/b&gt;" style="rounded=1;whiteSpace=wrap;html=1;fillColor=#F3FFA8;strokeColor=#d6b656;" vertex="1" parent="Zh6YG2GxRUYbAj4SdjON-16">
          <mxGeometry x="847.4715261958997" y="417.89282470481385" width="119.3621867881549" height="58.31062670299729" as="geometry" />
        </mxCell>
        <mxCell id="5Ai2d2LHb7HxCxD4g9rU-6" value="" style="endArrow=classic;html=1;rounded=0;exitX=1;exitY=0.5;exitDx=0;exitDy=0;entryX=0;entryY=0.5;entryDx=0;entryDy=0;" edge="1" parent="Zh6YG2GxRUYbAj4SdjON-16" source="Zh6YG2GxRUYbAj4SdjON-10" target="5Ai2d2LHb7HxCxD4g9rU-2">
          <mxGeometry width="50" height="50" relative="1" as="geometry">
            <mxPoint x="358.0865603644647" y="369.3006357856495" as="sourcePoint" />
            <mxPoint x="407.82080485952923" y="320.708446866485" as="targetPoint" />
          </mxGeometry>
        </mxCell>
        <mxCell id="5Ai2d2LHb7HxCxD4g9rU-57" value="&lt;div&gt;&lt;b&gt;&lt;font style=&quot;font-size: 18px;&quot;&gt;&lt;span style=&quot;font-family: &amp;quot;Times New Roman&amp;quot;; text-align: start; text-wrap: wrap;&quot;&gt;&lt;font color=&quot;#e91616&quot;&gt;Database: &lt;/font&gt;STAGE&lt;/span&gt;&lt;/font&gt;&lt;/b&gt;&lt;b&gt;&lt;font style=&quot;font-size: 18px;&quot;&gt;&lt;span style=&quot;font-family: &amp;quot;Times New Roman&amp;quot;; text-align: start; text-wrap: wrap;&quot;&gt;&lt;font color=&quot;#ff171f&quot;&gt;&lt;br&gt;&lt;/font&gt;&lt;/span&gt;&lt;/font&gt;&lt;/b&gt;&lt;/div&gt;&lt;div&gt;&lt;b&gt;&lt;font style=&quot;font-size: 18px;&quot;&gt;&lt;span style=&quot;font-family: &amp;quot;Times New Roman&amp;quot;; text-align: start; text-wrap: wrap;&quot;&gt;&lt;font color=&quot;#ff171f&quot;&gt;Schema &lt;/font&gt;: ExtendAg_FTP&lt;/span&gt;&lt;br&gt;&lt;/font&gt;&lt;/b&gt;&lt;/div&gt;&lt;div&gt;&lt;span style=&quot;font-family: &amp;quot;Times New Roman&amp;quot;; text-align: start; text-wrap: wrap;&quot;&gt;&lt;b&gt;&lt;font size=&quot;3&quot;&gt;&lt;br&gt;&lt;/font&gt;&lt;/b&gt;&lt;/span&gt;&lt;/div&gt;&lt;div&gt;&lt;span style=&quot;font-family: &amp;quot;Times New Roman&amp;quot;; text-align: start; text-wrap: wrap;&quot;&gt;&lt;b&gt;&lt;font size=&quot;3&quot;&gt;&lt;font color=&quot;#ff121a&quot;&gt;Tables&lt;/font&gt;:&lt;/font&gt;&lt;/b&gt;&lt;/span&gt;&lt;/div&gt;&lt;div&gt;&lt;b&gt;&lt;font size=&quot;3&quot;&gt;&lt;span style=&quot;font-family: &amp;quot;Times New Roman&amp;quot;; text-align: start; text-wrap: wrap;&quot;&gt;Receivers&lt;/span&gt;&lt;span style=&quot;font-family: &amp;quot;Times New Roman&amp;quot;; text-align: start; text-wrap: wrap;&quot;&gt;&lt;br&gt;&lt;/span&gt;&lt;/font&gt;&lt;/b&gt;&lt;/div&gt;&lt;div&gt;&lt;b&gt;&lt;font size=&quot;3&quot;&gt;&lt;span style=&quot;font-family: &amp;quot;Times New Roman&amp;quot;; text-align: start; text-wrap: wrap;&quot;&gt;Contracts&lt;/span&gt;&lt;span style=&quot;font-family: &amp;quot;Times New Roman&amp;quot;; text-align: start; text-wrap: wrap;&quot;&gt;&lt;br&gt;&lt;/span&gt;&lt;/font&gt;&lt;/b&gt;&lt;/div&gt;&lt;div&gt;&lt;b&gt;&lt;font size=&quot;3&quot;&gt;&lt;span style=&quot;font-family: &amp;quot;Times New Roman&amp;quot;; text-align: start; text-wrap: wrap;&quot;&gt;Fields&lt;/span&gt;&lt;span style=&quot;font-family: &amp;quot;Times New Roman&amp;quot;; text-align: start; text-wrap: wrap;&quot;&gt;&lt;br&gt;&lt;/span&gt;&lt;/font&gt;&lt;/b&gt;&lt;/div&gt;&lt;div&gt;&lt;b&gt;&lt;font size=&quot;3&quot;&gt;&lt;span style=&quot;font-family: &amp;quot;Times New Roman&amp;quot;; text-align: start; text-wrap: wrap;&quot;&gt;Varieties&lt;/span&gt;&lt;span style=&quot;font-family: &amp;quot;Times New Roman&amp;quot;; text-align: start; text-wrap: wrap;&quot;&gt;&lt;br&gt;&lt;/span&gt;&lt;/font&gt;&lt;/b&gt;&lt;/div&gt;&lt;div&gt;&lt;b&gt;&lt;font size=&quot;3&quot;&gt;&lt;span style=&quot;font-family: &amp;quot;Times New Roman&amp;quot;; text-align: start; text-wrap: wrap;&quot;&gt;Businesses&lt;/span&gt;&lt;span style=&quot;font-family: &amp;quot;Times New Roman&amp;quot;; text-align: start; text-wrap: wrap;&quot;&gt;&lt;br&gt;&lt;/span&gt;&lt;/font&gt;&lt;/b&gt;&lt;/div&gt;&lt;div&gt;&lt;span style=&quot;font-family: &amp;quot;Times New Roman&amp;quot;; font-size: medium; text-align: start; text-wrap: wrap;&quot;&gt;&lt;br&gt;&lt;/span&gt;&lt;/div&gt;" style="text;html=1;align=center;verticalAlign=middle;resizable=0;points=[];autosize=1;strokeColor=none;fillColor=none;" vertex="1" parent="Zh6YG2GxRUYbAj4SdjON-16">
          <mxGeometry x="268.56492027334855" y="68.02906448683017" width="220" height="210" as="geometry" />
        </mxCell>
        <mxCell id="5Ai2d2LHb7HxCxD4g9rU-60" value="" style="endArrow=classic;html=1;rounded=0;entryX=0.5;entryY=0;entryDx=0;entryDy=0;" edge="1" parent="Zh6YG2GxRUYbAj4SdjON-16" source="5Ai2d2LHb7HxCxD4g9rU-57" target="5Ai2d2LHb7HxCxD4g9rU-2">
          <mxGeometry width="50" height="50" relative="1" as="geometry">
            <mxPoint x="402.84738041002277" y="252.6793823796549" as="sourcePoint" />
            <mxPoint x="452.5816249050873" y="204.0871934604905" as="targetPoint" />
          </mxGeometry>
        </mxCell>
        <mxCell id="5Ai2d2LHb7HxCxD4g9rU-62" value="" style="edgeStyle=orthogonalEdgeStyle;rounded=0;orthogonalLoop=1;jettySize=auto;html=1;entryX=0.5;entryY=1;entryDx=0;entryDy=0;" edge="1" parent="Zh6YG2GxRUYbAj4SdjON-16" source="5Ai2d2LHb7HxCxD4g9rU-61" target="5Ai2d2LHb7HxCxD4g9rU-3">
          <mxGeometry relative="1" as="geometry">
            <Array as="points">
              <mxPoint x="646.545178435839" y="544.2325158946413" />
              <mxPoint x="646.545178435839" y="544.2325158946413" />
            </Array>
          </mxGeometry>
        </mxCell>
        <mxCell id="5Ai2d2LHb7HxCxD4g9rU-61" value="&lt;div&gt;&lt;font style=&quot;font-size: 18px;&quot;&gt;&lt;b style=&quot;&quot;&gt;&lt;font style=&quot;&quot;&gt;&lt;span style=&quot;font-family: &amp;quot;Times New Roman&amp;quot;; text-align: start; text-wrap: wrap;&quot;&gt;&lt;font style=&quot;&quot; color=&quot;#ff171f&quot;&gt;Database:&amp;nbsp;&lt;/font&gt;&lt;/span&gt;&lt;/font&gt;&lt;/b&gt;&lt;span style=&quot;text-wrap: wrap; background-color: initial; font-family: &amp;quot;Times New Roman&amp;quot;; text-align: start;&quot;&gt;&lt;b&gt;Analytics&lt;/b&gt;&lt;/span&gt;&lt;br&gt;&lt;/font&gt;&lt;/div&gt;&lt;div&gt;&lt;b&gt;&lt;font size=&quot;3&quot;&gt;&lt;font style=&quot;&quot;&gt;&lt;span style=&quot;font-family: &amp;quot;Times New Roman&amp;quot;; text-align: start; text-wrap: wrap;&quot;&gt;&lt;font color=&quot;#e91616&quot;&gt;Schema &lt;/font&gt;:&amp;nbsp;&lt;/span&gt;&lt;/font&gt;&lt;span style=&quot;font-family: &amp;quot;Times New Roman&amp;quot;; text-align: start; text-wrap: wrap; background-color: initial;&quot;&gt;ExtendAg_Silver&lt;/span&gt;&lt;font style=&quot;&quot;&gt;&lt;br&gt;&lt;/font&gt;&lt;/font&gt;&lt;/b&gt;&lt;/div&gt;&lt;div&gt;&lt;span style=&quot;font-family: &amp;quot;Times New Roman&amp;quot;; text-align: start; text-wrap: wrap;&quot;&gt;&lt;b&gt;&lt;font size=&quot;3&quot;&gt;&lt;br&gt;&lt;/font&gt;&lt;/b&gt;&lt;/span&gt;&lt;/div&gt;&lt;div&gt;&lt;span style=&quot;font-family: &amp;quot;Times New Roman&amp;quot;; text-align: start; text-wrap: wrap;&quot;&gt;&lt;b&gt;&lt;font size=&quot;3&quot;&gt;&lt;font color=&quot;#ff2e58&quot;&gt;Tables&lt;/font&gt;:&lt;/font&gt;&lt;/b&gt;&lt;/span&gt;&lt;/div&gt;&lt;div&gt;&lt;b&gt;&lt;font size=&quot;3&quot;&gt;&lt;span style=&quot;font-family: &amp;quot;Times New Roman&amp;quot;; text-align: start; text-wrap: wrap;&quot;&gt;Receivers_Standardized&lt;/span&gt;&lt;span style=&quot;font-family: &amp;quot;Times New Roman&amp;quot;; text-align: start; text-wrap: wrap;&quot;&gt;&lt;br&gt;&lt;/span&gt;&lt;/font&gt;&lt;/b&gt;&lt;/div&gt;&lt;div&gt;&lt;b&gt;&lt;font size=&quot;3&quot;&gt;&lt;span style=&quot;font-family: &amp;quot;Times New Roman&amp;quot;; text-align: start; text-wrap: wrap;&quot;&gt;Receivers_Tickets_Standardized&lt;/span&gt;&lt;span style=&quot;font-family: &amp;quot;Times New Roman&amp;quot;; text-align: start; text-wrap: wrap;&quot;&gt;&lt;br&gt;&lt;/span&gt;&lt;/font&gt;&lt;/b&gt;&lt;/div&gt;&lt;div&gt;&lt;b&gt;&lt;font size=&quot;3&quot;&gt;&lt;span style=&quot;font-family: &amp;quot;Times New Roman&amp;quot;; text-align: start; text-wrap: wrap;&quot;&gt;Receivers_Attributes_Standardized&lt;/span&gt;&lt;span style=&quot;font-family: &amp;quot;Times New Roman&amp;quot;; text-align: start; text-wrap: wrap;&quot;&gt;&lt;br&gt;&lt;/span&gt;&lt;/font&gt;&lt;/b&gt;&lt;/div&gt;&lt;div&gt;&lt;b&gt;&lt;font size=&quot;3&quot;&gt;&lt;span style=&quot;font-family: &amp;quot;Times New Roman&amp;quot;; text-align: start; text-wrap: wrap;&quot;&gt;Receivers_Pricing_Standardized&lt;/span&gt;&lt;span style=&quot;font-family: &amp;quot;Times New Roman&amp;quot;; text-align: start; text-wrap: wrap;&quot;&gt;&lt;br&gt;&lt;/span&gt;&lt;/font&gt;&lt;/b&gt;&lt;/div&gt;&lt;div&gt;&lt;b&gt;&lt;font size=&quot;3&quot;&gt;&lt;span style=&quot;font-family: &amp;quot;Times New Roman&amp;quot;; text-align: start; text-wrap: wrap;&quot;&gt;Contracts_Standardized&lt;/span&gt;&lt;span style=&quot;font-family: &amp;quot;Times New Roman&amp;quot;; text-align: start; text-wrap: wrap;&quot;&gt;&lt;br&gt;&lt;/span&gt;&lt;/font&gt;&lt;/b&gt;&lt;/div&gt;&lt;div&gt;&lt;b&gt;&lt;font size=&quot;3&quot;&gt;&lt;span style=&quot;font-family: &amp;quot;Times New Roman&amp;quot;; text-align: start; text-wrap: wrap;&quot;&gt;Fields_Standardized&lt;/span&gt;&lt;span style=&quot;font-family: &amp;quot;Times New Roman&amp;quot;; text-align: start; text-wrap: wrap;&quot;&gt;&lt;br&gt;&lt;/span&gt;&lt;/font&gt;&lt;/b&gt;&lt;/div&gt;&lt;div&gt;&lt;b&gt;&lt;font size=&quot;3&quot;&gt;&lt;span style=&quot;font-family: &amp;quot;Times New Roman&amp;quot;; text-align: start; text-wrap: wrap;&quot;&gt;Receivers_Enhanced&lt;/span&gt;&lt;span style=&quot;font-family: &amp;quot;Times New Roman&amp;quot;; text-align: start; text-wrap: wrap;&quot;&gt;&lt;br&gt;&lt;/span&gt;&lt;/font&gt;&lt;/b&gt;&lt;/div&gt;&lt;div&gt;&lt;b&gt;&lt;font size=&quot;3&quot;&gt;&lt;span style=&quot;font-family: &amp;quot;Times New Roman&amp;quot;; text-align: start; text-wrap: wrap;&quot;&gt;Receiver_Attributes_Enhanced&lt;/span&gt;&lt;span style=&quot;font-family: &amp;quot;Times New Roman&amp;quot;; text-align: start; text-wrap: wrap;&quot;&gt;&lt;br&gt;&lt;/span&gt;&lt;/font&gt;&lt;/b&gt;&lt;/div&gt;&lt;div&gt;&lt;b&gt;&lt;font size=&quot;3&quot;&gt;&lt;span style=&quot;font-family: &amp;quot;Times New Roman&amp;quot;; text-align: start; text-wrap: wrap;&quot;&gt;Receivers_Pricing_Enhanced&lt;/span&gt;&lt;span style=&quot;font-family: &amp;quot;Times New Roman&amp;quot;; text-align: start; text-wrap: wrap;&quot;&gt;&lt;br&gt;&lt;/span&gt;&lt;/font&gt;&lt;/b&gt;&lt;/div&gt;&lt;div&gt;&lt;b&gt;&lt;font size=&quot;3&quot;&gt;&lt;span style=&quot;font-family: &amp;quot;Times New Roman&amp;quot;; text-align: start; text-wrap: wrap;&quot;&gt;Contracts_Enhanced&lt;/span&gt;&lt;span style=&quot;font-family: &amp;quot;Times New Roman&amp;quot;; text-align: start; text-wrap: wrap;&quot;&gt;&lt;br&gt;&lt;/span&gt;&lt;/font&gt;&lt;/b&gt;&lt;/div&gt;&lt;div&gt;&lt;b&gt;&lt;font size=&quot;3&quot;&gt;&lt;span style=&quot;font-family: &amp;quot;Times New Roman&amp;quot;; text-align: start; text-wrap: wrap;&quot;&gt;Fields_Enhanced&lt;/span&gt;&lt;span style=&quot;font-family: &amp;quot;Times New Roman&amp;quot;; text-align: start; text-wrap: wrap;&quot;&gt;&lt;br&gt;&lt;/span&gt;&lt;/font&gt;&lt;/b&gt;&lt;/div&gt;&lt;div&gt;&lt;b&gt;&lt;font size=&quot;3&quot;&gt;&lt;span style=&quot;font-family: &amp;quot;Times New Roman&amp;quot;; text-align: start; text-wrap: wrap;&quot;&gt;Vendor_Unified&lt;/span&gt;&lt;span style=&quot;font-family: &amp;quot;Times New Roman&amp;quot;; text-align: start; text-wrap: wrap;&quot;&gt;&lt;br&gt;&lt;/span&gt;&lt;/font&gt;&lt;/b&gt;&lt;/div&gt;&lt;div&gt;&lt;b&gt;&lt;font size=&quot;3&quot;&gt;&lt;span style=&quot;font-family: &amp;quot;Times New Roman&amp;quot;; text-align: start; text-wrap: wrap;&quot;&gt;Material_Unified&lt;/span&gt;&lt;span style=&quot;font-family: &amp;quot;Times New Roman&amp;quot;; text-align: start; text-wrap: wrap;&quot;&gt;&lt;br&gt;&lt;/span&gt;&lt;/font&gt;&lt;/b&gt;&lt;/div&gt;&lt;div&gt;&lt;b&gt;&lt;font size=&quot;3&quot;&gt;&lt;span style=&quot;font-family: &amp;quot;Times New Roman&amp;quot;; text-align: start; text-wrap: wrap;&quot;&gt;Location_Unified&lt;/span&gt;&lt;span style=&quot;font-family: &amp;quot;Times New Roman&amp;quot;; text-align: start; text-wrap: wrap;&quot;&gt;&lt;br&gt;&lt;/span&gt;&lt;/font&gt;&lt;/b&gt;&lt;/div&gt;&lt;div&gt;&lt;b&gt;&lt;font size=&quot;3&quot;&gt;&lt;span style=&quot;font-family: &amp;quot;Times New Roman&amp;quot;; text-align: start; text-wrap: wrap;&quot;&gt;Fields_Unified&lt;/span&gt;&lt;span style=&quot;font-family: &amp;quot;Times New Roman&amp;quot;; text-align: start; text-wrap: wrap;&quot;&gt;&lt;br&gt;&lt;/span&gt;&lt;/font&gt;&lt;/b&gt;&lt;/div&gt;&lt;div&gt;&lt;b&gt;&lt;font size=&quot;3&quot;&gt;&lt;span style=&quot;font-family: &amp;quot;Times New Roman&amp;quot;; text-align: start; text-wrap: wrap;&quot;&gt;Tickets_Unified&lt;/span&gt;&lt;span style=&quot;font-family: &amp;quot;Times New Roman&amp;quot;; text-align: start; text-wrap: wrap;&quot;&gt;&lt;br&gt;&lt;/span&gt;&lt;/font&gt;&lt;/b&gt;&lt;/div&gt;&lt;div&gt;&lt;b&gt;&lt;font size=&quot;3&quot;&gt;&lt;span style=&quot;font-family: &amp;quot;Times New Roman&amp;quot;; text-align: start; text-wrap: wrap;&quot;&gt;Pricing_Conditions_Unified&lt;/span&gt;&lt;span style=&quot;font-family: &amp;quot;Times New Roman&amp;quot;; text-align: start; text-wrap: wrap;&quot;&gt;&lt;br&gt;&lt;/span&gt;&lt;/font&gt;&lt;/b&gt;&lt;/div&gt;&lt;div&gt;&lt;b&gt;&lt;font size=&quot;3&quot;&gt;&lt;span style=&quot;font-family: &amp;quot;Times New Roman&amp;quot;; text-align: start; text-wrap: wrap;&quot;&gt;Contracts_Unified&lt;/span&gt;&lt;span style=&quot;font-family: &amp;quot;Times New Roman&amp;quot;; text-align: start; text-wrap: wrap;&quot;&gt;&lt;br&gt;&lt;/span&gt;&lt;/font&gt;&lt;/b&gt;&lt;/div&gt;&lt;div&gt;&lt;span style=&quot;font-family: &amp;quot;Times New Roman&amp;quot;; text-align: start; text-wrap: wrap;&quot;&gt;&lt;b style=&quot;&quot;&gt;&lt;font size=&quot;3&quot;&gt;Purchases_Unified&lt;/font&gt;&lt;/b&gt;&lt;/span&gt;&lt;span style=&quot;font-family: &amp;quot;Times New Roman&amp;quot;; font-size: medium; text-align: start; text-wrap: wrap;&quot;&gt;&lt;br&gt;&lt;/span&gt;&lt;/div&gt;" style="text;html=1;align=center;verticalAlign=middle;resizable=0;points=[];autosize=1;strokeColor=none;fillColor=none;" vertex="1" parent="Zh6YG2GxRUYbAj4SdjON-16">
          <mxGeometry x="516.24145785877" y="622.9518619436875" width="270" height="460" as="geometry" />
        </mxCell>
        <mxCell id="5Ai2d2LHb7HxCxD4g9rU-63" value="" style="endArrow=classic;html=1;rounded=0;entryX=0;entryY=0.5;entryDx=0;entryDy=0;exitX=1;exitY=0.5;exitDx=0;exitDy=0;" edge="1" parent="Zh6YG2GxRUYbAj4SdjON-16" source="5Ai2d2LHb7HxCxD4g9rU-2" target="5Ai2d2LHb7HxCxD4g9rU-3">
          <mxGeometry width="50" height="50" relative="1" as="geometry">
            <mxPoint x="507.2892938496583" y="495.6403269754768" as="sourcePoint" />
            <mxPoint x="557.0235383447229" y="447.04813805631244" as="targetPoint" />
          </mxGeometry>
        </mxCell>
        <mxCell id="5Ai2d2LHb7HxCxD4g9rU-65" value="" style="endArrow=classic;html=1;rounded=0;entryX=0;entryY=0.5;entryDx=0;entryDy=0;exitX=1;exitY=0.5;exitDx=0;exitDy=0;" edge="1" parent="Zh6YG2GxRUYbAj4SdjON-16" source="5Ai2d2LHb7HxCxD4g9rU-3" target="5Ai2d2LHb7HxCxD4g9rU-4">
          <mxGeometry width="50" height="50" relative="1" as="geometry">
            <mxPoint x="706.2262718299165" y="505.3587647593098" as="sourcePoint" />
            <mxPoint x="755.960516324981" y="456.7665758401453" as="targetPoint" />
          </mxGeometry>
        </mxCell>
        <mxCell id="5Ai2d2LHb7HxCxD4g9rU-67" value="&lt;div&gt;&lt;b&gt;&lt;font style=&quot;font-size: 18px;&quot;&gt;&lt;span style=&quot;font-family: &amp;quot;Times New Roman&amp;quot;; text-align: start; text-wrap: wrap;&quot;&gt;&lt;font color=&quot;#ff171f&quot;&gt;Database:&amp;nbsp;&lt;/font&gt;&lt;/span&gt;&lt;/font&gt;&lt;/b&gt;&lt;span style=&quot;font-family: &amp;quot;Times New Roman&amp;quot;; font-size: medium; text-align: start; text-wrap: wrap; background-color: initial;&quot;&gt;&lt;b&gt;Analytics&lt;/b&gt;&lt;/span&gt;&lt;/div&gt;&lt;div&gt;&lt;b&gt;&lt;font style=&quot;font-size: 18px;&quot;&gt;&lt;span style=&quot;font-family: &amp;quot;Times New Roman&amp;quot;; text-align: start; text-wrap: wrap;&quot;&gt;&lt;font color=&quot;#ff171f&quot;&gt;Schema &lt;/font&gt;:&amp;nbsp;&lt;/span&gt;&lt;/font&gt;&lt;span style=&quot;font-family: &amp;quot;Times New Roman&amp;quot;; font-size: medium; text-align: start; text-wrap: wrap; background-color: initial;&quot;&gt;Information_Marts&lt;/span&gt;&lt;font style=&quot;font-size: 18px;&quot;&gt;&lt;br&gt;&lt;/font&gt;&lt;/b&gt;&lt;/div&gt;&lt;div&gt;&lt;span style=&quot;font-family: &amp;quot;Times New Roman&amp;quot;; text-align: start; text-wrap: wrap;&quot;&gt;&lt;b&gt;&lt;font size=&quot;3&quot;&gt;&lt;br&gt;&lt;/font&gt;&lt;/b&gt;&lt;/span&gt;&lt;/div&gt;&lt;div&gt;&lt;span style=&quot;font-family: &amp;quot;Times New Roman&amp;quot;; text-align: start; text-wrap: wrap;&quot;&gt;&lt;b&gt;&lt;font size=&quot;3&quot;&gt;&lt;font color=&quot;#ff121a&quot;&gt;Tables&lt;/font&gt;:&lt;/font&gt;&lt;/b&gt;&lt;/span&gt;&lt;/div&gt;&lt;div&gt;&lt;b&gt;&lt;span style=&quot;font-family: &amp;quot;Times New Roman&amp;quot;; font-size: medium; text-align: start; text-wrap: wrap;&quot;&gt;Vendor_Dim&lt;/span&gt;&lt;font size=&quot;3&quot;&gt;&lt;span style=&quot;font-family: &amp;quot;Times New Roman&amp;quot;; text-align: start; text-wrap: wrap;&quot;&gt;&lt;br&gt;&lt;/span&gt;&lt;/font&gt;&lt;/b&gt;&lt;/div&gt;&lt;div&gt;&lt;b&gt;&lt;span style=&quot;font-family: &amp;quot;Times New Roman&amp;quot;; font-size: medium; text-align: start; text-wrap: wrap;&quot;&gt;Material_Dim&lt;/span&gt;&lt;font size=&quot;3&quot;&gt;&lt;span style=&quot;font-family: &amp;quot;Times New Roman&amp;quot;; text-align: start; text-wrap: wrap;&quot;&gt;&lt;br&gt;&lt;/span&gt;&lt;/font&gt;&lt;/b&gt;&lt;/div&gt;&lt;div&gt;&lt;b&gt;&lt;span style=&quot;font-family: &amp;quot;Times New Roman&amp;quot;; font-size: medium; text-align: start; text-wrap: wrap;&quot;&gt;Location_Dim&lt;/span&gt;&lt;font size=&quot;3&quot;&gt;&lt;span style=&quot;font-family: &amp;quot;Times New Roman&amp;quot;; text-align: start; text-wrap: wrap;&quot;&gt;&lt;br&gt;&lt;/span&gt;&lt;/font&gt;&lt;/b&gt;&lt;/div&gt;&lt;div&gt;&lt;b&gt;&lt;span style=&quot;font-family: &amp;quot;Times New Roman&amp;quot;; font-size: medium; text-align: start; text-wrap: wrap;&quot;&gt;Fields_Dim&lt;/span&gt;&lt;font size=&quot;3&quot;&gt;&lt;span style=&quot;font-family: &amp;quot;Times New Roman&amp;quot;; text-align: start; text-wrap: wrap;&quot;&gt;&lt;br&gt;&lt;/span&gt;&lt;/font&gt;&lt;/b&gt;&lt;/div&gt;&lt;div&gt;&lt;b&gt;&lt;span style=&quot;font-family: &amp;quot;Times New Roman&amp;quot;; font-size: medium; text-align: start; text-wrap: wrap;&quot;&gt;Tickets_Fact&lt;/span&gt;&lt;font size=&quot;3&quot;&gt;&lt;span style=&quot;font-family: &amp;quot;Times New Roman&amp;quot;; text-align: start; text-wrap: wrap;&quot;&gt;&lt;br&gt;&lt;/span&gt;&lt;/font&gt;&lt;/b&gt;&lt;/div&gt;&lt;div&gt;&lt;b&gt;&lt;span style=&quot;font-family: &amp;quot;Times New Roman&amp;quot;; font-size: medium; text-align: start; text-wrap: wrap;&quot;&gt;Pricing_Conditions_Fact&lt;/span&gt;&lt;span style=&quot;font-family: &amp;quot;Times New Roman&amp;quot;; font-size: medium; text-align: start; text-wrap: wrap;&quot;&gt;&lt;br&gt;&lt;/span&gt;&lt;/b&gt;&lt;/div&gt;&lt;div&gt;&lt;b&gt;&lt;span style=&quot;font-family: &amp;quot;Times New Roman&amp;quot;; font-size: medium; text-align: start; text-wrap: wrap;&quot;&gt;Contracts_Fact&lt;/span&gt;&lt;span style=&quot;font-family: &amp;quot;Times New Roman&amp;quot;; font-size: medium; text-align: start; text-wrap: wrap;&quot;&gt;&lt;br&gt;&lt;/span&gt;&lt;/b&gt;&lt;/div&gt;&lt;div&gt;&lt;b&gt;&lt;span style=&quot;font-family: &amp;quot;Times New Roman&amp;quot;; font-size: medium; text-align: start; text-wrap: wrap;&quot;&gt;Purchases_Fact&lt;/span&gt;&lt;span style=&quot;font-family: &amp;quot;Times New Roman&amp;quot;; font-size: medium; text-align: start; text-wrap: wrap;&quot;&gt;&lt;br&gt;&lt;/span&gt;&lt;/b&gt;&lt;/div&gt;&lt;div&gt;&lt;span style=&quot;font-family: &amp;quot;Times New Roman&amp;quot;; font-size: medium; text-align: start; text-wrap: wrap;&quot;&gt;&lt;br&gt;&lt;/span&gt;&lt;/div&gt;" style="text;html=1;align=center;verticalAlign=middle;resizable=0;points=[];autosize=1;strokeColor=none;fillColor=none;" vertex="1" parent="Zh6YG2GxRUYbAj4SdjON-16">
          <mxGeometry x="785.8010630220198" width="230" height="270" as="geometry" />
        </mxCell>
        <mxCell id="5Ai2d2LHb7HxCxD4g9rU-68" value="" style="endArrow=classic;html=1;rounded=0;exitX=0.5;exitY=0;exitDx=0;exitDy=0;entryX=0.533;entryY=1.014;entryDx=0;entryDy=0;entryPerimeter=0;" edge="1" parent="Zh6YG2GxRUYbAj4SdjON-16" source="5Ai2d2LHb7HxCxD4g9rU-4" target="5Ai2d2LHb7HxCxD4g9rU-67">
          <mxGeometry width="50" height="50" relative="1" as="geometry">
            <mxPoint x="755.960516324981" y="310.9900090826522" as="sourcePoint" />
            <mxPoint x="805.6947608200455" y="262.3978201634877" as="targetPoint" />
          </mxGeometry>
        </mxCell>
        <mxCell id="Zh6YG2GxRUYbAj4SdjON-5" value="" style="shape=image;verticalLabelPosition=bottom;labelBackgroundColor=default;verticalAlign=top;aspect=fixed;imageAspect=0;image=data:image/png,iVBORw0KGgoAAAANSUhEUgAAAcwAAABuCAMAAACdptPlAAAAYFBMVEX///8ptegAr+YXsueg2fPW7vr1+/5Bu+pVwevg8/uY1vIArubu+P2R0/ETs+fF5/e44vZ8zO/p9vzc8fqz4PWH0PDM6vjA5fdOvutoxu12yu7T7fmp3PRkxO2e2PNvyO5ImhsuAAARYUlEQVR4nO1dibarqBJVSDQjiUnMPPz/Xz4pQKYCMX1yMzz36tXr3KgIbCiKGjDLBvzfYb+slgfswnZU1bviX1dnwPO45IQySqlHZ3FrLjBKlu+o1YBnsJrnAvOrfaFgTFygt/fUbEBfLEiuMN9aV45UXSD3N1VuQD9UrCXTnoErzXJO3lW7Ab2guWw4M3Udg+XcX08HfCAKYpJpytmjcYEOcvYbsLDIHBtXSpPM2dsqOCAdA5k/hIHMH8JA5g9hIPOHMJD5vZiON/YPz5G5GE9fXtUBcSwpISQfmT89Q+ahbIoh58U/qfMAFItcGFtpbthz+pO5PYpHGNn/s6oPcGGQdmylZF8yi7N+gAyy9l1YUpO2Spphe5I5IqYt9/iv2/DPsDjMqvOjbm3Vs2P9ZEmHyWnTfVdfmFw2QpIK72UvMle5XcivTs3tjVDKGKO5/OFOcnp+qqjxvOnqv6uZxJTkNmi+ynqROZ14Rez+vJqfgNnc7ZAJb+xTZd3pK8b8heYuyGSTTmZRu1Q2P4+Cr/tizAx3vZSznEz2VGGvIdObmcBevUkik9131B8MvzkzL9AjfBNHWjfu82SOXkJmhpDR1NDUZ8JkNnIfe/on10zhx71OTUf9x5E5Q/mwyQmSiYJO/ryS78cWJqYTXvpxZGZ5J5s9ySQv0LnfDr7I0bXz4+eRWZRdbPYik9Fx8FVfjFuOKK6fRybfLrEoP33IJOffjHTnbfOMIZ9IpmWM+09kkuM2+JLvRtP5rHJ//Egys2xcRuhMJZMyd1H5HRDMe/uhZGbZGt9mpJPJfjn5hIee+oGlH0tmli1JgM4kMsnplx2ZQKZn2PpgMrPFCZe1CWTS8vLKmr0d30dmll3QbUonmZT9ogHPxDeSmWWYsbWDTEqedep9BS6rBgfQZvf8T0NffxGZ0/67u2KDPoO4Qay3Hr2rN9Tis11donUq9tf6cbudR8hmZnxe6ttG9flcj1adDdysl015p/qKGS2W537LQFFXstETQjl4Sxn8NddDN0zmdMcr86h3Rusut0fbkTEyJ4T4CVmLw+x8u90qtCPWRx7EdfUvNL3iOigty0dtGxhojob8zCihhDyCOtEB/Lx8uFO/FtM5k/bdlXQHN91IJrGUs+Ja8ju5xG/eXLl8Pgib9xJqTTki923vqxHztjsDZC6WkHQuKpMv5VhfzJn2R0fILJmXK9m2LoeOcNe0G5FUrLDy7NABam05xmbrVGCCg7V8nhF8Puxzq4uo4zPjLZ3z2+zNb6CyHDNbEWdkYs/3phzWZy3gFApL7MUnk8TJLM5uZcSY5pK6XbDCZHIujfHC4W4zKLN6/aGznydokVZQj31JP6tDhiyoOD24A5ubrSCHEAxRC7MgaGmWVb68P2F1zS6Ir8Bex/lC3yck4MzaRMabFrNUiFk9tjEyd9SzjTLCOz+JzAK4pKat6YAYAGiuB6s13OY1xkihupJSd0lUefD4OLBNgwzp/pMM7SRlVdePHIYNY0ZZ0FJl/2+kNf+fnOo5MjjuIpyDi7TjpFS30tJo1pX2ywzmRZTy7/26wY4XcD7wP+MK0EMFnNJyoitDbmlkFjAsrbgiyQPlRZVtRxgnTVTW4KG4rNzC0o8Zzu9NkU3PoZ0zcoz2xHu8FqM8V2fPTJfwCNU0jaAv4TZSXqHzplc13b3yKhkCUO3FpelICnGmRyHsLPBpjWHNqbM6JXVrIgY6ZUvJ2nYmpAYtU8iUXJrzciJUL/JYi9bwjhA9o0SPu70IaDGbwy6gRO53a9Si7sbpNUW7JYs4FWJ2VcGNFYZLe6QKYeYqqfbATnmVaNrSrOhBVIPp8XGi2LgKYeKNwkQyj8yfHDsI22DlupPMRW6xBG+QxJmVmQrbjrKe5h4C+4t+8OP0EOEG2jBxVJlr8+C87XpFJn04j/LindhG/mRDutsvUji1/155cy0CiGazz8VJI/MME2viDpqT1lBiZEouTXVTFFi63KwExUJt9PaKXEzFzeTT0/Ho6cQWsDi95o2uPgsv8941ZqRs/yHJpJ7L6c7fYKU/QDQHQ+JUrg7x5irYhZG/wiaRuSNorbk6mkDmRtxhumZEgc6Q5hApJaKAJeaMjtrktrCuxQi/YnF6/ukycPIFJvAM0gWZDDkzqnI5ATUVjaC/2sRzgZBqP0N03xQyC0RwSKi0gQiZG+DEOlppEeIyk8IVemIzzzHQMhTxsZVDK8jmPhB7Qt3dHcRwdkwRQSbFljhnsnMtNWf4WigWU7MFvkBobjp6DG+RXWkKmXw/E0rNuLEOMiWX9gYyUuACBDBMv3vAFR2w2Wzb23E2N7dAedRVV4T+k0ImHnzLj5RievCz3BG7JqACrbu8NKlVmJFmvXV/hEnsDOsEMmGYovtq/jyNkzk1V0H1GwkNaY4DaRt0x+dmowMjydBbgyqMzaAj1NrrCYDo6IjfE2Ti13Kz/2D3h4uhTFri2nHDJ7HHOyifrorGkOGWQCYfA+GDkXY0RuYW4RI2kBGlbaLr7hlg9WRyG7e17vTYRIPaoc/RNAW4OZ4nxlsasr7xMN/2kKljfGDAZXVvYc9pwBqrDCi+bs0TyKS5Z0EwEZuZoocd83phLRM+4CGl+vl7QkWXHZW1dVi32RwHAzUDcXpgsGB5zIkB2mTADrs34leRLYQFvk3XgTtIsKTQ6h29iK9UnrTsJpPLARZVEINkCnO3u107YIPKrb1WJUe+GVHAMD9qLtsJaLJZB8R1OE5PZrHEnCDQ0sCE2xi9usYCk03wGrfz7uDdLZtmC4HCHPDWr3Eyl6bIQCDWF4xMYVz1loAKG1QmdvaYD4ZYaiuE5nK3P0ru9bq6TJbVGtfW6FsFVJdRxFxTGGFydVdzT9TcG1GXJWXVtN61Q0dIN5md6X1lgEzhZPP9S2XesRzxcc1MFcf0cFhzU5bdcgmDzmVzi89LVIvSuKqnWIDPkcWBDZNMkJKxN9krk8t9IYxHjpaBk9JNJi8oeppyxVAyBZdIGoD4nUXAb7ANzgd06VRW6Va0CgGi2Jwf2vr5iPikBQyXFcpnKpl5V/+BZG2LHzuEgJ61dNQMGO6+EaeTzKJjyZSt8sgUx/ciSusmIPQcuGr3DHtMDE7lZ28HjjTRy2UGKz0pTu+aa+cKI/nMlqmpZDK03w2MbbtcaTceBp4QxXo8QRas34JOMhfoDSZQQ/tBWWNQ00UKvPcgtloZNCGnUCu7d9QkE5nTqdbs1YNq9YvaboFUMiM7GN0hxvo3snSUlTD0QFCBnt94B3WTCYpZtO2YC2zdrlOeGUuouDEpy+HF0hVnRFpSi8x2EZG3ygmB7kqSUxT2dd5aG6yPNLxqZi4sOx3fqvAJAUNX6c5jo3jvtX89MzdrSVgODk8bMDNPyw64ZjLXnSwgym6NuHJqKoksqz3ByCRBC6+PzahUb5/rnnjRmmlvNTdqCwJRCGq1AyUJ2RW9Ys1kws1ENzvMQt891X0ETAeq4oo9drT+JYfRDjcYkEePwM/pUsUBtVM6lUwYS7GyXQvowdiZgfUNZq1pugmZtru1Wdo1sjxtFjTpnG6lT4A4xeOaWASYO1lA3aHZLDwucQ2I39DvIxnKf1kY/04hs3ufmTsFUUdPb4uRKyuY8jAL/x/sM2HAWmQqLpuHEY+BRUM3cHcyr6ARxNXqulSZgDSX2YYFbEgxqwFSERFu0Z73lUhmpwWIuPMMZgeMGbANiCFnOHKC0SXdZM5MKYpg41mANJfKcmvJ9yog8XFcQ9Y8W0y6OxdmLtVFINcoD8VwBlCa4zCVzAVqedM4aMIkuOVMzDywxxjH+UA3Y8Z447XdttmIbn33bLMGl2pX6dU+8UDffdDO7iowNpvMUbvwXCMoCI2qxTE1AxBSyRSm5vCYQS7zevG5ylllynnGhStwuMPcZPq1ca8JCJdwi0WX2GRSXTnY0VvxL8JAFSwv4+vDDd5XBN3JSPCIyabLZRYMGOHSOj05DJq60S1NInNnrIE+Vogf/C5t+A/LNpDLkXQMdl8CmUtTK/Zw9f2Zel7CL6DSmlObbwNjU7N5Apy5m4CEDYR1aTYRLjMjRN2bnMnJ1KUxi5LJzLBIvxZQAWfp3ojHFzbPIyGP4SJe4wQyo253LNLAiUKFSDzTPz2N+/GnKtQg1PehgEtfj7URdHUHe9oFzZ8Qs2K8B2TbGYsYkNuZma21iu8rxQ60S4kBqtAXyjsRMt1XgRZomhIfkQJlzMU5tD+kZfgMZ8GmZ6bQCLm6E8Mb9+ZmL51MoTih74Aa+wsg2GEu0BjjV5Bo+4jTKSk6D0YWutesZOdEySwEC3qvtfDWUQNAPTcCnjAq4+aGET8BMHqOGu7q9kb6tMY2Lbwf2y1yDzJB1jA/1Eh4WrEYVjXmLM2zTW0LdUJS3CxY5zA2z63zKRrRLgSnMTSFaQjrdZFgBGMV6/TOjLfFokM5Lfy0rdwP/6CU+H4VsWlW+kAPMqWrmzkzsLjR0JRVhmh7MVIJG1GfeGdEO0xAVrqR6pCA4itAvkQHlc3MtToLQ5G3fd2LwEyokE/l5E/Ou0Nc3S6ZBbf2kptF5xoMW7oRfciUyhd5mA1QO2iMGeXVsyfQWu77QqF+ibkmWGqIXKFuKVlgEAJr6mCyQKt12Uakmsn55xjIA1ms+1PTyV4SMm/ZrNlb4rkKnqvbC4sRIofkyz0sDsVlpr7eYMQm9SBTssnIbQedU+xrYeylWPpfpkayq5kxXI5Yr03IAhOdT8njAN2/OFQytXOSlp8Jya+mCi5EDCOTnbx7s74J34TaKVzNHscjIrnZFuY48SwiB0IjQ2DmOGG8G2TcUSNumzt5cqAcUbpp/cjUQUW8QELkrKTHgMSUZ7I6v4qIg6BxNfm0kcpsXVsZUqVmToNINmdArVsHl5TXUG9ijP7GIyINs627K1/po8pR4bx4GLKWIKZTPBXYKKonmdnY16QjeVBgOfOIEZpjUHFIPzrm4JtQhLPWIjO4CyqYO9T22NFp1FiYW+0tEBFpmW1tQgqzaIJmXetYWn9aA0bUbrHT9epMAwx8zfXNIiO7vEbmRgzDdrypApdn4VDJHsetNfPAaZwYIolnGliGTYGZOz6cnce0JHAUBurbcLOALKXwatcUt9jtWDMaaGR6HB4Ujhvh/3kxQJc5xTO7OI6UzZEoo91RlsdbVUdt/Os5I/6eJfrSZqVl+dzbtF4JegZScS9148qRbFxB9Dc0su2c+Xk4AoemIq4arlqXQ5FHr88v93qGLnp+FpDlM7x5Ex4N4NqdJ6d7NEpvu1tWp0c1O/iyenVDZzygqE+4llKs7tXjdF7uOr016xNm8VydYruzzalEtqDXWyBSZHOYVaeT3bjpo9Idsn8Em7g+1X7HFasRPzaJF9njjEIkC6jjhK7fPgLxi4FmAXWdndeVdT3gHQhkAXWfavnLxwZ/J6w9RT8yuVr8k+fsfyvc3X4/MkMb1gFvAJ5y0ofMvjF5A16EUDJYLzL7xuQNeAVQ39UzZPaNyRvw50DOYXyazBTH6IDXAc3oe57M3/yu25fgEjqV4FkyI+enDHgxkNzMXOa0PEnmk1/uHfCfUWBCltGZyWaYzBNqMgr66we8FmOETFIVFsfhb07f0YSVvmmFA/4IPpmwu0j/GjyyrxnIfBNcMSv3/elkIhaHQcy+C1akXmuR60OmZwscFKB3YWxsTXRiZj8ybSu9m8894N9hpIO7NGl9ycyK1n+GZ1sM+DdY81ghZvuXe5MJH8eFcKoh6uC9WFcPJ53nCTKzbL88V9chHujj8BSZAz4TA5k/hIHMH8JA5g9hIPOHMJD5QxjI/CVYZJp7x5Nhhu1xaNOAN8JK9jIvmCl96ef0DXgnjK+gO9nPmkzsG8QDPhFVyHCu0+Ajx/4N+CzU4svexDtNRWbt03Iww34PpnWZlxWSF12MJnl+GpL4PgL/A+EwvVyWPa8IAAAAAElFTkSuQmCC;" vertex="1" parent="Zh6YG2GxRUYbAj4SdjON-16">
          <mxGeometry x="507.2892938496583" y="281.83469573115354" width="106.25562277744423" height="25.409873920472915" as="geometry" />
        </mxCell>
        <mxCell id="Zh6YG2GxRUYbAj4SdjON-6" value="&lt;b&gt;SOURCES&lt;/b&gt;" style="text;html=1;align=center;verticalAlign=middle;resizable=0;points=[];autosize=1;strokeColor=none;fillColor=none;" vertex="1" parent="Zh6YG2GxRUYbAj4SdjON-16">
          <mxGeometry x="59.68109339407745" y="505.3587647593098" width="80" height="30" as="geometry" />
        </mxCell>
        <mxCell id="Zh6YG2GxRUYbAj4SdjON-7" value="&lt;b&gt;Transform&lt;/b&gt;" style="text;html=1;align=center;verticalAlign=middle;whiteSpace=wrap;rounded=0;" vertex="1" parent="Zh6YG2GxRUYbAj4SdjON-16">
          <mxGeometry x="477.4487471526196" y="417.89282470481385" width="59.68109339407745" height="29.155313351498645" as="geometry" />
        </mxCell>
        <mxCell id="Zh6YG2GxRUYbAj4SdjON-8" value="&lt;b&gt;Transform&lt;/b&gt;" style="text;html=1;align=center;verticalAlign=middle;whiteSpace=wrap;rounded=0;" vertex="1" parent="Zh6YG2GxRUYbAj4SdjON-16">
          <mxGeometry x="746.0136674259682" y="417.89282470481385" width="59.68109339407745" height="29.155313351498645" as="geometry" />
        </mxCell>
        <mxCell id="Zh6YG2GxRUYbAj4SdjON-12" value="" style="group" connectable="0" vertex="1" parent="Zh6YG2GxRUYbAj4SdjON-16">
          <mxGeometry y="388.73751135331514" width="198.93697798025815" height="116.62125340599458" as="geometry" />
        </mxCell>
        <mxCell id="Zh6YG2GxRUYbAj4SdjON-10" value="" style="rounded=1;whiteSpace=wrap;html=1;" vertex="1" parent="Zh6YG2GxRUYbAj4SdjON-12">
          <mxGeometry width="198.93697798025815" height="116.62125340599458" as="geometry" />
        </mxCell>
        <mxCell id="5Ai2d2LHb7HxCxD4g9rU-5" value="" style="image;aspect=fixed;html=1;points=[];align=center;fontSize=12;image=img/lib/azure2/general/Files.svg;" vertex="1" parent="Zh6YG2GxRUYbAj4SdjON-12">
          <mxGeometry x="19.893697798025816" y="19.436875567665762" width="50.81974784094583" height="59.2897058144368" as="geometry" />
        </mxCell>
        <mxCell id="Zh6YG2GxRUYbAj4SdjON-9" value="" style="image;points=[];aspect=fixed;html=1;align=center;shadow=0;dashed=0;image=img/lib/allied_telesis/computer_and_terminals/Personal_Computer.svg;" vertex="1" parent="Zh6YG2GxRUYbAj4SdjON-12">
          <mxGeometry x="109.41533788914198" y="29.155313351498645" width="42.34978986745485" height="50.81974784094583" as="geometry" />
        </mxCell>
        <mxCell id="Zh6YG2GxRUYbAj4SdjON-13" value="" style="shape=image;html=1;verticalAlign=top;verticalLabelPosition=bottom;labelBackgroundColor=#ffffff;imageAspect=0;aspect=fixed;image=https://cdn3.iconfinder.com/data/icons/fintech-icon/128/11_Data_Visualization-128.png" vertex="1" parent="Zh6YG2GxRUYbAj4SdjON-16">
          <mxGeometry x="1163.7813211845103" y="384.85013623978205" width="108.41546206068443" height="108.41546206068443" as="geometry" />
        </mxCell>
        <mxCell id="Zh6YG2GxRUYbAj4SdjON-14" value="" style="endArrow=classic;html=1;rounded=0;entryX=0;entryY=0.5;entryDx=0;entryDy=0;exitX=1;exitY=0.5;exitDx=0;exitDy=0;" edge="1" parent="Zh6YG2GxRUYbAj4SdjON-16" source="5Ai2d2LHb7HxCxD4g9rU-4" target="Zh6YG2GxRUYbAj4SdjON-13">
          <mxGeometry width="50" height="50" relative="1" as="geometry">
            <mxPoint x="1034.4722854973425" y="466.4850136239783" as="sourcePoint" />
            <mxPoint x="1084.2065299924068" y="417.89282470481385" as="targetPoint" />
          </mxGeometry>
        </mxCell>
        <mxCell id="Zh6YG2GxRUYbAj4SdjON-15" value="&lt;b&gt;POWERBI VISUALIZATION&lt;/b&gt;" style="text;html=1;align=center;verticalAlign=middle;whiteSpace=wrap;rounded=0;" vertex="1" parent="Zh6YG2GxRUYbAj4SdjON-16">
          <mxGeometry x="1144.8823082763856" y="495.6403269754768" width="165.11769172361429" height="29.155313351498645" as="geometry" />
        </mxCell>
      </root>
    </mxGraphModel>
  </diagram>
</mxfile>
